<svg width="58" height="58" viewBox="0 0 58 58" fill="none" xmlns="http://www.w3.org/2000/svg">
<rect width="58" height="58" rx="7" fill="white"/>
<path d="M26 8C26 5.79086 27.7909 4 30 4H38C40.2091 4 42 5.79086 42 8V9C42 11.2091 40.2091 13 38 13H30C27.7909 13 26 11.2091 26 9V8Z" fill="black"/>
<path d="M42 18C42 15.7909 43.7909 14 46 14H47C49.2091 14 51 15.7909 51 18V19C51 21.2091 49.2091 23 47 23H46C43.7909 23 42 21.2091 42 19V18Z" fill="black"/>
<path d="M10 38C10 35.7909 11.7909 34 14 34H15C17.2091 34 19 35.7909 19 38V39C19 41.2091 17.2091 43 15 43H14C11.7909 43 10 41.2091 10 39V38Z" fill="black"/>
<path d="M31 38C31 35.7909 32.7909 34 35 34H39C41.2091 34 43 35.7909 43 38V39C43 41.2091 41.2091 43 39 43H35C32.7909 43 31 41.2091 31 39V38Z" fill="black"/>
<path d="M24 28C24 25.7909 25.7909 24 28 24H31C33.2091 24 35 25.7909 35 28V29C35 31.2091 33.2091 33 31 33H28C25.7909 33 24 31.2091 24 29V28Z" fill="black"/>
<path d="M16 18C16 15.7909 17.7909 14 20 14H24C26.2091 14 28 15.7909 28 18V19C28 21.2091 26.2091 23 24 23H20C17.7909 23 16 21.2091 16 19V18Z" fill="black"/>
<path d="M18 48C18 45.7909 19.7909 44 22 44H31C33.2091 44 35 45.7909 35 48V49C35 51.2091 33.2091 53 31 53H22C19.7909 53 18 51.2091 18 49V48Z" fill="black"/>
<path d="M44 38C44 35.7909 45.7909 34 48 34H51C53.2091 34 55 35.7909 55 38V39C55 41.2091 53.2091 43 51 43H48C45.7909 43 44 41.2091 44 39V38Z" fill="#EEEEEE"/>
<path d="M37 28C37 25.7909 38.7909 24 41 24H51C53.2091 24 55 25.7909 55 28V29C55 31.2091 53.2091 33 51 33H41C38.7909 33 37 31.2091 37 29V28Z" fill="#EEEEEE"/>
<path d="M4 28C4 25.7909 5.79086 24 8 24H18C20.2091 24 22 25.7909 22 28V29C22 31.2091 20.2091 33 18 33H8C5.79086 33 4 31.2091 4 29V28Z" fill="#EEEEEE"/>
<path d="M4 8C4 5.79086 5.79086 4 8 4H21C23.2091 4 25 5.79086 25 8V9C25 11.2091 23.2091 13 21 13H8C5.79086 13 4 11.2091 4 9V8Z" fill="#EEEEEE"/>
<path d="M43 8C43 5.79086 44.7909 4 47 4H51C53.2091 4 55 5.79086 55 8V9C55 11.2091 53.2091 13 51 13H47C44.7909 13 43 11.2091 43 9V8Z" fill="#EEEEEE"/>
<path d="M4 48C4 45.7909 5.79086 44 8 44H13C15.2091 44 17 45.7909 17 48V49C17 51.2091 15.2091 53 13 53H8C5.79086 53 4 51.2091 4 49V48Z" fill="#EEEEEE"/>
<path d="M29 18C29 15.7909 30.7909 14 33 14H37C39.2091 14 41 15.7909 41 18V19C41 21.2091 39.2091 23 37 23H33C30.7909 23 29 21.2091 29 19V18Z" fill="#EEEEEE"/>
</svg>
