<svg width="156" height="86" viewBox="0 0 156 86" fill="none" xmlns="http://www.w3.org/2000/svg">
<path d="M18.3281 21.1094C18.3281 21.4375 18.2109 21.7812 17.9766 22.1406C17.7422 22.5 17.4844 22.7656 17.2031 22.9375C17.125 22.9844 16.9922 23.0312 16.8047 23.0781C16.6172 23.125 16.4141 23.1719 16.1953 23.2188C15.9922 23.25 15.7891 23.2891 15.5859 23.3359C15.3984 23.3672 15.25 23.3906 15.1406 23.4062L15.7031 26.875C15.875 27.9531 16 29.0391 16.0781 30.1328C16.1719 31.2109 16.375 32.2812 16.6875 33.3438C16.7188 33.4375 16.75 33.5234 16.7812 33.6016C16.8125 33.6797 16.8281 33.7812 16.8281 33.9062C16.8281 34.1094 16.7656 34.2656 16.6406 34.375C16.5312 34.4844 16.3906 34.5625 16.2188 34.6094C16.0625 34.6719 15.8906 34.7109 15.7031 34.7266C15.5156 34.7422 15.3438 34.75 15.1875 34.75H14.8594C14.375 34.75 14 34.7109 13.7344 34.6328C13.4844 34.5547 13.2891 34.4219 13.1484 34.2344C13.0078 34.0469 12.9141 33.8125 12.8672 33.5312C12.8203 33.2344 12.7656 32.875 12.7031 32.4531C12.3281 29.5938 11.9062 26.7344 11.4375 23.875C10.4688 24 9.49219 24.1172 8.50781 24.2266C7.53906 24.3359 6.5625 24.4375 5.57812 24.5312L4.82812 29.125C4.79688 29.4062 4.75 29.7891 4.6875 30.2734C4.64062 30.7578 4.57812 31.2578 4.5 31.7734C4.4375 32.2734 4.35938 32.7422 4.26562 33.1797C4.1875 33.6172 4.09375 33.9375 3.98438 34.1406C3.89062 34.3281 3.80469 34.4609 3.72656 34.5391C3.64844 34.6172 3.5 34.6562 3.28125 34.6562C3 34.6562 2.71875 34.6016 2.4375 34.4922C2.17188 34.3984 1.92969 34.2578 1.71094 34.0703C1.50781 33.8984 1.34375 33.6875 1.21875 33.4375C1.09375 33.1875 1.03125 32.9062 1.03125 32.5938C1.03125 32.2812 1.0625 31.9688 1.125 31.6562C1.20312 31.3438 1.26562 31.0312 1.3125 30.7188C1.48438 29.6875 1.64062 28.6641 1.78125 27.6484C1.92188 26.6172 2.07812 25.5938 2.25 24.5781C2.14062 24.5625 2.01562 24.5391 1.875 24.5078C1.73438 24.4609 1.59375 24.4062 1.45312 24.3438C1.32812 24.2812 1.21875 24.2031 1.125 24.1094C1.03125 24.0156 0.984375 23.9062 0.984375 23.7812C0.984375 23.625 1.03906 23.4844 1.14844 23.3594C1.27344 23.2188 1.41406 23.0938 1.57031 22.9844C1.74219 22.8594 1.91406 22.7578 2.08594 22.6797C2.25781 22.5859 2.40625 22.5156 2.53125 22.4688C2.85938 20.2812 3.17188 18.1016 3.46875 15.9297C3.76562 13.7578 4.03125 11.5625 4.26562 9.34375C4.32812 8.75 4.38281 8.14844 4.42969 7.53906C4.47656 6.92969 4.52344 6.32031 4.57031 5.71094C4.63281 5.10156 4.70312 4.5 4.78125 3.90625C4.875 3.3125 5 2.71875 5.15625 2.125C5.29688 1.5625 5.53125 1.10938 5.85938 0.765625C6.1875 0.421875 6.67188 0.25 7.3125 0.25C7.5 0.25 7.67969 0.265625 7.85156 0.296875C8.03906 0.328125 8.20312 0.390625 8.34375 0.484375C8.75 0.6875 9.17188 1.24219 9.60938 2.14844C10.0469 3.05469 10.4844 4.15625 10.9219 5.45312C11.3594 6.73438 11.7734 8.125 12.1641 9.625C12.5703 11.125 12.9375 12.5781 13.2656 13.9844C13.5938 15.3906 13.875 16.6641 14.1094 17.8047C14.3438 18.9297 14.5156 19.7656 14.625 20.3125C14.9531 20.2656 15.2812 20.2266 15.6094 20.1953C15.9375 20.1484 16.2656 20.125 16.5938 20.125C16.75 20.125 16.9297 20.1328 17.1328 20.1484C17.3359 20.1641 17.5234 20.2109 17.6953 20.2891C17.8828 20.3516 18.0312 20.4531 18.1406 20.5938C18.2656 20.7188 18.3281 20.8906 18.3281 21.1094ZM10.9688 20.9219C10.5625 18.7031 10.1172 16.5078 9.63281 14.3359C9.16406 12.1484 8.60938 9.96875 7.96875 7.79688C7.6875 10.1562 7.38281 12.5 7.05469 14.8281C6.72656 17.1562 6.375 19.4844 6 21.8125C6.84375 21.6875 7.67188 21.5547 8.48438 21.4141C9.3125 21.2578 10.1406 21.0938 10.9688 20.9219ZM29.0156 33.2734C29.0156 33.4453 28.9766 33.5938 28.8984 33.7188C28.8203 33.8281 28.7188 33.9219 28.5938 34C28.4844 34.0625 28.3594 34.1094 28.2188 34.1406C28.0938 34.1719 27.9688 34.1875 27.8438 34.1875C27.6562 34.1875 27.4531 34.1641 27.2344 34.1172C27.0156 34.0703 26.7969 34.0078 26.5781 33.9297C26.3594 33.8359 26.1562 33.7266 25.9688 33.6016C25.7969 33.4609 25.6641 33.3047 25.5703 33.1328C25.4766 32.9609 25.4062 32.75 25.3594 32.5C25.3281 32.2344 25.2969 31.9688 25.2656 31.7031C25.1094 32.0781 24.9219 32.4453 24.7031 32.8047C24.5 33.1641 24.25 33.4844 23.9531 33.7656C23.6562 34.0312 23.3203 34.2422 22.9453 34.3984C22.5859 34.5703 22.1797 34.6562 21.7266 34.6562C20.9297 34.6562 20.2812 34.4688 19.7812 34.0938C19.2969 33.7188 18.9141 33.25 18.6328 32.6875C18.3672 32.1094 18.1875 31.4844 18.0938 30.8125C18.0156 30.125 17.9766 29.4688 17.9766 28.8438C17.9766 28.3281 18 27.7422 18.0469 27.0859C18.0938 26.4297 18.1562 25.7578 18.2344 25.0703C18.3125 24.3828 18.4062 23.7188 18.5156 23.0781C18.625 22.4219 18.7422 21.8438 18.8672 21.3438C19.0234 20.7656 19.2109 20.1328 19.4297 19.4453C19.6641 18.7422 19.9531 18.0938 20.2969 17.5C20.6562 16.8906 21.0938 16.375 21.6094 15.9531C22.125 15.5312 22.7422 15.2969 23.4609 15.25C23.4141 13.9844 23.3438 12.8203 23.25 11.7578C23.1719 10.6797 23.0859 9.57812 22.9922 8.45312L22.7578 5.85156L22.6641 4.91406C22.6328 4.66406 22.6094 4.41406 22.5938 4.16406C22.5781 3.89844 22.5703 3.64063 22.5703 3.39062C22.5703 3.03125 22.6641 2.78125 22.8516 2.64062C23.0547 2.5 23.3125 2.42969 23.625 2.42969C24.3125 2.42969 24.8359 2.53125 25.1953 2.73438C25.5547 2.9375 25.8047 3.21094 25.9453 3.55469C26.1016 3.89844 26.1875 4.30469 26.2031 4.77344C26.2188 5.22656 26.2266 5.71875 26.2266 6.25C26.2266 6.59375 26.2656 6.98437 26.3438 7.42188L26.4609 8.28906L26.6484 10.6797C26.6797 11.0547 26.7109 11.4297 26.7422 11.8047C26.7734 12.1797 26.8047 12.5547 26.8359 12.9297L27.3281 17.9688L28.2656 27.3906L28.3359 28.2578C28.3984 28.8984 28.4531 29.5625 28.5 30.25C28.5625 30.9375 28.6719 31.6172 28.8281 32.2891C28.875 32.4609 28.9141 32.625 28.9453 32.7812C28.9922 32.9375 29.0156 33.1016 29.0156 33.2734ZM23.5547 19.5625C23.5547 19.3906 23.5469 19.2031 23.5312 19C23.5312 18.7812 23.5312 18.5781 23.5312 18.3906V17.7578C23.4219 17.9141 23.2812 18.1328 23.1094 18.4141C22.9375 18.6797 22.8047 18.9219 22.7109 19.1406C22.4609 19.6875 22.2344 20.3906 22.0312 21.25C21.8281 22.0938 21.6484 22.9844 21.4922 23.9219C21.3516 24.8438 21.2422 25.75 21.1641 26.6406C21.0859 27.5156 21.0469 28.25 21.0469 28.8438C21.0469 29.0625 21.0469 29.3125 21.0469 29.5938C21.0625 29.875 21.0938 30.1641 21.1406 30.4609C21.1875 30.7422 21.2578 31.0156 21.3516 31.2812C21.4453 31.5469 21.5703 31.7656 21.7266 31.9375C21.9609 31.6406 22.1719 31.1875 22.3594 30.5781C22.5469 29.9531 22.7031 29.25 22.8281 28.4688C22.9688 27.6719 23.0859 26.8359 23.1797 25.9609C23.2734 25.0859 23.3438 24.2422 23.3906 23.4297C23.4531 22.6016 23.4922 21.8516 23.5078 21.1797C23.5391 20.4922 23.5547 19.9531 23.5547 19.5625ZM41.1562 33.2734C41.1562 33.4453 41.1172 33.5938 41.0391 33.7188C40.9609 33.8281 40.8594 33.9219 40.7344 34C40.625 34.0625 40.5 34.1094 40.3594 34.1406C40.2344 34.1719 40.1094 34.1875 39.9844 34.1875C39.7969 34.1875 39.5938 34.1641 39.375 34.1172C39.1562 34.0703 38.9375 34.0078 38.7188 33.9297C38.5 33.8359 38.2969 33.7266 38.1094 33.6016C37.9375 33.4609 37.8047 33.3047 37.7109 33.1328C37.6172 32.9609 37.5469 32.75 37.5 32.5C37.4688 32.2344 37.4375 31.9688 37.4062 31.7031C37.25 32.0781 37.0625 32.4453 36.8438 32.8047C36.6406 33.1641 36.3906 33.4844 36.0938 33.7656C35.7969 34.0312 35.4609 34.2422 35.0859 34.3984C34.7266 34.5703 34.3203 34.6562 33.8672 34.6562C33.0703 34.6562 32.4219 34.4688 31.9219 34.0938C31.4375 33.7188 31.0547 33.25 30.7734 32.6875C30.5078 32.1094 30.3281 31.4844 30.2344 30.8125C30.1562 30.125 30.1172 29.4688 30.1172 28.8438C30.1172 28.3281 30.1406 27.7422 30.1875 27.0859C30.2344 26.4297 30.2969 25.7578 30.375 25.0703C30.4531 24.3828 30.5469 23.7188 30.6562 23.0781C30.7656 22.4219 30.8828 21.8438 31.0078 21.3438C31.1641 20.7656 31.3516 20.1328 31.5703 19.4453C31.8047 18.7422 32.0938 18.0938 32.4375 17.5C32.7969 16.8906 33.2344 16.375 33.75 15.9531C34.2656 15.5312 34.8828 15.2969 35.6016 15.25C35.5547 13.9844 35.4844 12.8203 35.3906 11.7578C35.3125 10.6797 35.2266 9.57812 35.1328 8.45312L34.8984 5.85156L34.8047 4.91406C34.7734 4.66406 34.75 4.41406 34.7344 4.16406C34.7188 3.89844 34.7109 3.64063 34.7109 3.39062C34.7109 3.03125 34.8047 2.78125 34.9922 2.64062C35.1953 2.5 35.4531 2.42969 35.7656 2.42969C36.4531 2.42969 36.9766 2.53125 37.3359 2.73438C37.6953 2.9375 37.9453 3.21094 38.0859 3.55469C38.2422 3.89844 38.3281 4.30469 38.3438 4.77344C38.3594 5.22656 38.3672 5.71875 38.3672 6.25C38.3672 6.59375 38.4062 6.98437 38.4844 7.42188L38.6016 8.28906L38.7891 10.6797C38.8203 11.0547 38.8516 11.4297 38.8828 11.8047C38.9141 12.1797 38.9453 12.5547 38.9766 12.9297L39.4688 17.9688L40.4062 27.3906L40.4766 28.2578C40.5391 28.8984 40.5938 29.5625 40.6406 30.25C40.7031 30.9375 40.8125 31.6172 40.9688 32.2891C41.0156 32.4609 41.0547 32.625 41.0859 32.7812C41.1328 32.9375 41.1562 33.1016 41.1562 33.2734ZM35.6953 19.5625C35.6953 19.3906 35.6875 19.2031 35.6719 19C35.6719 18.7812 35.6719 18.5781 35.6719 18.3906V17.7578C35.5625 17.9141 35.4219 18.1328 35.25 18.4141C35.0781 18.6797 34.9453 18.9219 34.8516 19.1406C34.6016 19.6875 34.375 20.3906 34.1719 21.25C33.9688 22.0938 33.7891 22.9844 33.6328 23.9219C33.4922 24.8438 33.3828 25.75 33.3047 26.6406C33.2266 27.5156 33.1875 28.25 33.1875 28.8438C33.1875 29.0625 33.1875 29.3125 33.1875 29.5938C33.2031 29.875 33.2344 30.1641 33.2812 30.4609C33.3281 30.7422 33.3984 31.0156 33.4922 31.2812C33.5859 31.5469 33.7109 31.7656 33.8672 31.9375C34.1016 31.6406 34.3125 31.1875 34.5 30.5781C34.6875 29.9531 34.8438 29.25 34.9688 28.4688C35.1094 27.6719 35.2266 26.8359 35.3203 25.9609C35.4141 25.0859 35.4844 24.2422 35.5312 23.4297C35.5938 22.6016 35.6328 21.8516 35.6484 21.1797C35.6797 20.4922 35.6953 19.9531 35.6953 19.5625ZM55.0312 33.4141C55.0312 33.5859 54.9922 33.7344 54.9141 33.8594C54.8359 33.9688 54.7344 34.0547 54.6094 34.1172C54.5 34.1797 54.375 34.2188 54.2344 34.2344C54.1094 34.2656 53.9844 34.2812 53.8594 34.2812C53.6875 34.2812 53.4844 34.2578 53.25 34.2109C53.0312 34.1797 52.8125 34.125 52.5938 34.0469C52.375 33.9688 52.1719 33.875 51.9844 33.7656C51.8125 33.6406 51.6797 33.4922 51.5859 33.3203C51.4922 33.1641 51.4062 32.875 51.3281 32.4531C51.2656 32.0156 51.2109 31.5156 51.1641 30.9531C51.1172 30.375 51.0781 29.7656 51.0469 29.125C51.0156 28.4688 50.9844 27.8438 50.9531 27.25C50.9375 26.6562 50.9219 26.125 50.9062 25.6562C50.9062 25.1719 50.9062 24.8125 50.9062 24.5781C50.9062 23.4844 50.9219 22.4297 50.9531 21.4141C51 20.3828 51.0469 19.3281 51.0938 18.25C51.0156 18.25 50.9375 18.2578 50.8594 18.2734C50.7812 18.2891 50.7031 18.2969 50.625 18.2969C50.4219 18.3281 50.2109 18.3516 49.9922 18.3672C49.7891 18.3828 49.5781 18.3906 49.3594 18.3906C49.0938 18.3906 48.8594 18.3438 48.6562 18.25C48.4531 18.1562 48.3516 17.9453 48.3516 17.6172C48.3516 17.2266 48.4375 16.9141 48.6094 16.6797C48.7812 16.4453 49 16.2656 49.2656 16.1406C49.5312 16 49.8203 15.9062 50.1328 15.8594C50.4453 15.7969 50.75 15.75 51.0469 15.7188C51.0938 15.7188 51.125 15.7188 51.1406 15.7188C51.1562 15.7031 51.1875 15.6953 51.2344 15.6953C51.25 15.5078 51.2656 15.2812 51.2812 15.0156C51.2969 14.7344 51.3125 14.4297 51.3281 14.1016C51.3438 13.5859 51.3672 13.0391 51.3984 12.4609C51.4297 11.8672 51.4609 11.3047 51.4922 10.7734C51.5234 10.2266 51.5625 9.75 51.6094 9.34375C51.6562 8.92188 51.7031 8.625 51.75 8.45312C51.8281 8.25 51.9141 8.08594 52.0078 7.96094C52.1172 7.83594 52.3125 7.77344 52.5938 7.77344C53.2188 7.77344 53.7031 7.97656 54.0469 8.38281C54.3906 8.78906 54.5625 9.28906 54.5625 9.88281C54.5625 10.5703 54.5391 11.2578 54.4922 11.9453C54.4609 12.6328 54.4297 13.3281 54.3984 14.0312L54.3281 15.2266C54.7188 15.1797 55.1094 15.1094 55.5 15.0156C55.875 14.9375 56.25 14.8672 56.625 14.8047C57.0156 14.7422 57.3906 14.7109 57.75 14.7109C58.0625 14.7109 58.3047 14.7969 58.4766 14.9688C58.6484 15.125 58.7344 15.3594 58.7344 15.6719C58.7344 16.0156 58.6719 16.3516 58.5469 16.6797C58.4219 17.0078 58.2031 17.2578 57.8906 17.4297H57.9141C57.8516 17.4609 57.6641 17.5078 57.3516 17.5703C57.0391 17.6172 56.6797 17.6641 56.2734 17.7109C55.8828 17.7578 55.4922 17.8047 55.1016 17.8516C54.7266 17.8984 54.4453 17.9297 54.2578 17.9453H54.2344C54.2031 18.8203 54.1797 19.6875 54.1641 20.5469C54.1484 21.3906 54.1406 22.25 54.1406 23.125C54.1406 24.3281 54.1719 25.6094 54.2344 26.9688C54.3125 28.3125 54.4375 29.5938 54.6094 30.8125L54.7969 31.8672C54.8594 32.1328 54.9141 32.3984 54.9609 32.6641C55.0078 32.9141 55.0312 33.1641 55.0312 33.4141ZM68.9062 24.3906C68.9062 25.75 68.7891 27.1094 68.5547 28.4688C68.3359 29.8125 67.875 31.0859 67.1719 32.2891C66.9531 32.6484 66.7031 33 66.4219 33.3438C66.1406 33.6719 65.8281 33.9688 65.4844 34.2344C65.1562 34.5156 64.7891 34.7344 64.3828 34.8906C63.9922 35.0625 63.5781 35.1484 63.1406 35.1484C62.4531 35.1484 61.8516 34.9844 61.3359 34.6562C60.8359 34.3438 60.3984 33.9297 60.0234 33.4141C59.6641 32.8828 59.3594 32.2891 59.1094 31.6328C58.875 30.9609 58.6875 30.2812 58.5469 29.5938C58.4219 28.8906 58.3281 28.2109 58.2656 27.5547C58.2188 26.8984 58.1953 26.3203 58.1953 25.8203C58.1953 25.2578 58.2188 24.6406 58.2656 23.9688C58.3125 23.2969 58.3906 22.6094 58.5 21.9062C58.625 21.2031 58.7812 20.5078 58.9688 19.8203C59.1719 19.1328 59.4297 18.4922 59.7422 17.8984C60.0547 17.2891 60.4297 16.75 60.8672 16.2812C61.3047 15.7969 61.8125 15.4141 62.3906 15.1328V15.1562C62.8906 14.8906 63.3906 14.7578 63.8906 14.7578C64.2031 14.7578 64.4453 14.8281 64.6172 14.9688C64.7891 15.0938 64.8672 15.3125 64.8516 15.625C65.7109 15.7812 66.4062 16.1953 66.9375 16.8672C67.4688 17.5391 67.875 18.3203 68.1562 19.2109C68.4531 20.1016 68.6484 21.0156 68.7422 21.9531C68.8516 22.8906 68.9062 23.7031 68.9062 24.3906ZM63.6094 18.5312C63.3438 18.5312 63.0938 18.4297 62.8594 18.2266C62.5625 18.6797 62.3125 19.2031 62.1094 19.7969C61.9062 20.375 61.7422 20.9766 61.6172 21.6016C61.5078 22.2109 61.4297 22.8281 61.3828 23.4531C61.3359 24.0781 61.3125 24.6641 61.3125 25.2109C61.3125 25.6641 61.3359 26.25 61.3828 26.9688C61.4297 27.6719 61.5156 28.3828 61.6406 29.1016C61.7812 29.8203 61.9688 30.4922 62.2031 31.1172C62.4531 31.7422 62.7734 32.2031 63.1641 32.5C63.6484 32.2188 64.0469 31.7734 64.3594 31.1641C64.6875 30.5391 64.9453 29.8594 65.1328 29.125C65.3203 28.3906 65.4453 27.6484 65.5078 26.8984C65.5859 26.1484 65.625 25.5078 65.625 24.9766C65.625 24.5859 65.6016 24.0781 65.5547 23.4531C65.5078 22.8281 65.4297 22.1953 65.3203 21.5547C65.2109 20.8984 65.0547 20.2891 64.8516 19.7266C64.6641 19.1641 64.4219 18.7422 64.125 18.4609C63.9844 18.5078 63.8125 18.5312 63.6094 18.5312ZM91.9453 30.5781C91.9453 30.9375 91.75 31.2812 91.3594 31.6094C90.9844 31.9375 90.4922 32.2422 89.8828 32.5234C89.2891 32.7891 88.625 33.0391 87.8906 33.2734C87.1719 33.4922 86.4609 33.6797 85.7578 33.8359C85.0703 33.9922 84.4375 34.1094 83.8594 34.1875C83.2812 34.2812 82.8516 34.3281 82.5703 34.3281C82.0391 34.3281 81.5469 34.2656 81.0938 34.1406C80.6562 34.0156 80.2734 33.8281 79.9453 33.5781C79.6172 33.3125 79.3594 32.9766 79.1719 32.5703C79 32.1641 78.9141 31.6719 78.9141 31.0938C78.9141 26.9219 78.9297 22.7656 78.9609 18.625C78.9922 14.4844 79.0078 10.3125 79.0078 6.10938C79.0078 5.45312 78.9922 4.80469 78.9609 4.16406C78.9297 3.52344 78.9141 2.875 78.9141 2.21875C78.9141 2.0625 78.9219 1.88281 78.9375 1.67969C78.9531 1.46094 78.9922 1.26562 79.0547 1.09375C79.1172 0.90625 79.2109 0.75 79.3359 0.625C79.4609 0.5 79.6328 0.4375 79.8516 0.4375C80.0703 0.4375 80.2969 0.46875 80.5312 0.53125C80.7812 0.59375 81.0078 0.6875 81.2109 0.8125C81.4297 0.9375 81.6172 1.09375 81.7734 1.28125C81.9453 1.45312 82.0703 1.65625 82.1484 1.89062C82.2266 2.17188 82.2578 2.47656 82.2422 2.80469C82.2422 3.11719 82.2422 3.4375 82.2422 3.76562C82.3203 7.92187 82.375 12.0469 82.4062 16.1406C82.4531 20.2344 82.4766 24.3594 82.4766 28.5156C82.4766 28.9844 82.4766 29.4531 82.4766 29.9219C82.4922 30.3906 82.5234 30.8594 82.5703 31.3281C82.9922 31.3125 83.5078 31.2422 84.1172 31.1172C84.7266 30.9922 85.3359 30.8359 85.9453 30.6484C86.5703 30.4453 87.1562 30.2188 87.7031 29.9688C88.25 29.7188 88.6797 29.4531 88.9922 29.1719C89.1328 29.0312 89.2812 28.8906 89.4375 28.75C89.5938 28.5938 89.7891 28.5156 90.0234 28.5156C90.2266 28.5156 90.4375 28.5859 90.6562 28.7266C90.8906 28.8672 91.1016 29.0469 91.2891 29.2656C91.4766 29.4688 91.6328 29.6875 91.7578 29.9219C91.8828 30.1562 91.9453 30.375 91.9453 30.5781ZM95.25 14.2891C95.25 14.5547 95.1875 14.75 95.0625 14.875C94.9531 14.9844 94.7422 15.0391 94.4297 15.0391C94.2891 15.0391 94.0703 15.0234 93.7734 14.9922C93.4766 14.9453 93.1719 14.8828 92.8594 14.8047C92.5625 14.7266 92.2969 14.6172 92.0625 14.4766C91.8438 14.3359 91.7344 14.1641 91.7344 13.9609C91.7344 13.8984 91.7578 13.7266 91.8047 13.4453C91.8516 13.1484 91.9062 12.8359 91.9688 12.5078C92.0469 12.1797 92.1094 11.8828 92.1562 11.6172C92.2188 11.3516 92.2656 11.2031 92.2969 11.1719V11.1953C92.375 11.0703 92.4688 10.9922 92.5781 10.9609C92.6875 10.9297 92.7969 10.9141 92.9062 10.9141C93.0469 10.9141 93.2266 10.9375 93.4453 10.9844C93.6797 11.0156 93.9062 11.0703 94.125 11.1484C94.3594 11.2109 94.5703 11.2969 94.7578 11.4062C94.9453 11.5156 95.0625 11.6328 95.1094 11.7578C95.1562 11.8828 95.1797 12.0547 95.1797 12.2734C95.1953 12.4766 95.1953 12.6641 95.1797 12.8359C95.1797 12.8984 95.1719 12.9766 95.1562 13.0703C95.1562 13.1484 95.1562 13.2109 95.1562 13.2578C95.1562 13.3359 95.1562 13.4141 95.1562 13.4922C95.1719 13.5703 95.1875 13.6484 95.2031 13.7266C95.2188 13.8047 95.2266 13.8906 95.2266 13.9844C95.2422 14.0781 95.25 14.1797 95.25 14.2891ZM96.1172 32.9688C96.1172 33.3281 96.0312 33.5859 95.8594 33.7422C95.7031 33.8828 95.4453 33.9531 95.0859 33.9531C94.8984 33.9531 94.6875 33.9297 94.4531 33.8828C94.2344 33.8359 94.0156 33.7734 93.7969 33.6953C93.5781 33.6016 93.375 33.4922 93.1875 33.3672C93 33.2422 92.8594 33.1016 92.7656 32.9453C92.7031 32.8516 92.6484 32.5625 92.6016 32.0781C92.5547 31.5938 92.5156 30.9922 92.4844 30.2734C92.4688 29.5547 92.4453 28.75 92.4141 27.8594C92.3984 26.9688 92.3828 26.0703 92.3672 25.1641C92.3672 24.2578 92.3672 23.375 92.3672 22.5156C92.3672 21.6562 92.3672 20.9062 92.3672 20.2656V18.4609C92.3672 18.3047 92.3672 18.1484 92.3672 17.9922C92.3828 17.8359 92.4141 17.7031 92.4609 17.5938C92.5234 17.4688 92.6094 17.3672 92.7188 17.2891C92.8438 17.2109 93.0156 17.1719 93.2344 17.1719C93.9219 17.1719 94.4219 17.3672 94.7344 17.7578C95.0625 18.1328 95.2656 18.6406 95.3438 19.2812C95.4219 20.2344 95.4766 21.1875 95.5078 22.1406C95.5547 23.0781 95.5938 24.0312 95.625 25C95.6562 25.875 95.6797 26.7422 95.6953 27.6016C95.7266 28.4453 95.7812 29.2891 95.8594 30.1328C95.875 30.3047 95.8906 30.4688 95.9062 30.625C95.9219 30.7812 95.9453 30.9375 95.9766 31.0938C96.0078 31.4062 96.0391 31.7188 96.0703 32.0312C96.1016 32.3281 96.1172 32.6406 96.1172 32.9688ZM108.984 20.7578C108.984 21.3984 108.953 22.1094 108.891 22.8906C108.828 23.6562 108.734 24.4531 108.609 25.2812C108.484 26.1094 108.312 26.9453 108.094 27.7891C107.891 28.6172 107.641 29.4141 107.344 30.1797C107.047 30.9453 106.695 31.6562 106.289 32.3125C105.898 32.9531 105.453 33.4922 104.953 33.9297C104.594 34.2422 104.188 34.4922 103.734 34.6797C103.297 34.8828 102.844 34.9844 102.375 34.9844C102.203 34.9844 102.023 34.9531 101.836 34.8906C101.648 34.8438 101.508 34.7188 101.414 34.5156C101.07 34.4844 100.727 34.4141 100.383 34.3047C100.055 34.2109 99.7812 33.9922 99.5625 33.6484C99.5156 33.5391 99.4766 33.4062 99.4453 33.25C99.4141 33.0938 99.3828 32.9297 99.3516 32.7578C99.3359 32.6797 99.3203 32.6094 99.3047 32.5469C99.2891 32.4688 99.2734 32.3984 99.2578 32.3359C98.8047 29.5234 98.4922 26.7109 98.3203 23.8984C98.1641 21.0859 98.0859 18.25 98.0859 15.3906C98.0859 15.1406 98.0859 14.7031 98.0859 14.0781C98.0859 13.4531 98.0859 12.7422 98.0859 11.9453C98.1016 11.1484 98.1094 10.3125 98.1094 9.4375C98.125 8.5625 98.1406 7.74219 98.1562 6.97656C98.1719 6.21094 98.1953 5.55469 98.2266 5.00781C98.2578 4.44531 98.2891 4.08594 98.3203 3.92969C98.3828 3.71094 98.4688 3.53125 98.5781 3.39062C98.6875 3.25 98.875 3.17969 99.1406 3.17969C99.875 3.17969 100.398 3.41406 100.711 3.88281C101.039 4.33594 101.203 4.89844 101.203 5.57031V11.5938C101.203 12.3281 101.203 12.9922 101.203 13.5859C101.203 14.1641 101.203 14.7344 101.203 15.2969C101.219 15.8438 101.234 16.4141 101.25 17.0078C101.266 17.5859 101.289 18.2344 101.32 18.9531C101.508 18.5312 101.734 18.1172 102 17.7109C102.281 17.3047 102.594 16.9375 102.938 16.6094C103.281 16.2812 103.664 16.0156 104.086 15.8125C104.508 15.6094 104.977 15.5078 105.492 15.5078C106.242 15.5078 106.844 15.6719 107.297 16C107.766 16.3281 108.117 16.75 108.352 17.2656C108.602 17.7656 108.766 18.3281 108.844 18.9531C108.938 19.5781 108.984 20.1797 108.984 20.7578ZM105.75 20.2188C105.75 19.9062 105.734 19.5625 105.703 19.1875C105.688 18.8125 105.594 18.4844 105.422 18.2031C105.281 18.3125 105.156 18.4297 105.047 18.5547C104.953 18.6797 104.852 18.8203 104.742 18.9766L104.695 19.0469V19.0234C104.258 19.7422 103.898 20.5781 103.617 21.5312C103.352 22.4844 103.133 23.4766 102.961 24.5078C102.805 25.5234 102.695 26.5391 102.633 27.5547C102.57 28.5547 102.539 29.4609 102.539 30.2734C102.539 30.4453 102.539 30.7031 102.539 31.0469C102.555 31.375 102.586 31.6484 102.633 31.8672C103.242 31.3516 103.742 30.6016 104.133 29.6172C104.539 28.6172 104.859 27.5469 105.094 26.4062C105.344 25.25 105.516 24.1172 105.609 23.0078C105.703 21.8984 105.75 20.9688 105.75 20.2188ZM112.875 34.375C112.641 34.375 112.383 34.3438 112.102 34.2812C111.836 34.2188 111.578 34.1172 111.328 33.9766C111.094 33.8359 110.891 33.6641 110.719 33.4609C110.562 33.2422 110.484 32.9844 110.484 32.6875C110.484 32.25 110.5 31.8203 110.531 31.3984C110.578 30.9609 110.625 30.5312 110.672 30.1094V30.1328L110.812 28.5625C110.859 28 110.898 27.3828 110.93 26.7109C110.961 26.0391 110.984 25.3594 111 24.6719C111.031 23.9688 111.055 23.2812 111.07 22.6094C111.086 21.9375 111.094 21.3203 111.094 20.7578C111.094 20.4297 111.086 20.1016 111.07 19.7734C111.07 19.4297 111.07 19.0859 111.07 18.7422C111.055 18.4453 111.047 18.1172 111.047 17.7578C111.047 17.3828 111.047 17.0391 111.047 16.7266C111.047 16.3984 111.086 16.1328 111.164 15.9297C111.258 15.7109 111.508 15.6016 111.914 15.6016C112.273 15.6016 112.648 15.6953 113.039 15.8828C113.445 16.0703 113.727 16.3359 113.883 16.6797H113.859C113.938 16.8516 113.992 17.1328 114.023 17.5234C114.07 17.8984 114.102 18.2344 114.117 18.5312C114.383 18.125 114.68 17.6953 115.008 17.2422C115.352 16.7891 115.719 16.375 116.109 16C116.5 15.6094 116.914 15.2891 117.352 15.0391C117.789 14.7891 118.258 14.6641 118.758 14.6641C119.414 14.6641 119.914 14.8281 120.258 15.1562C120.602 15.4844 120.852 15.8984 121.008 16.3984C121.164 16.8828 121.25 17.4062 121.266 17.9688C121.281 18.5156 121.289 19.0156 121.289 19.4688V19.6562C121.289 19.8438 121.281 20.0312 121.266 20.2188C121.266 20.3906 121.234 20.5547 121.172 20.7109C121.125 20.8516 121.031 20.9688 120.891 21.0625C120.766 21.1562 120.586 21.2031 120.352 21.2031C120.102 21.2031 119.836 21.1719 119.555 21.1094C119.273 21.0312 119.008 20.9219 118.758 20.7812C118.523 20.6406 118.32 20.4688 118.148 20.2656C117.977 20.0469 117.883 19.7969 117.867 19.5156C117.867 19.3906 117.867 19.2656 117.867 19.1406C117.867 19.0156 117.875 18.8906 117.891 18.7656C117.891 18.6875 117.891 18.5938 117.891 18.4844C117.906 18.3594 117.914 18.2422 117.914 18.1328C117.414 18.6328 116.969 19.25 116.578 19.9844C116.203 20.7188 115.859 21.5 115.547 22.3281C115.25 23.1562 114.992 23.9922 114.773 24.8359C114.555 25.6641 114.367 26.4141 114.211 27.0859V27.1562C114.164 27.6406 114.133 28.1172 114.117 28.5859C114.102 29.0547 114.086 29.5391 114.07 30.0391C114.055 30.6016 114.031 31.1719 114 31.75C113.984 32.3281 113.945 32.8906 113.883 33.4375C113.852 33.7344 113.758 33.9609 113.602 34.1172C113.461 34.2891 113.219 34.375 112.875 34.375ZM131.625 33.6953C131.625 34.0078 131.547 34.2188 131.391 34.3281C131.234 34.4531 131.016 34.5156 130.734 34.5156C130 34.5156 129.469 34.3203 129.141 33.9297C128.828 33.5391 128.594 33.0234 128.438 32.3828C128.391 32.1641 128.344 31.9453 128.297 31.7266C128.25 31.4922 128.211 31.2656 128.18 31.0469C128.148 30.8438 128.117 30.7031 128.086 30.625C128.055 30.5469 128.023 30.3984 127.992 30.1797C127.805 30.6328 127.57 31.1094 127.289 31.6094C127.023 32.0938 126.711 32.5469 126.352 32.9688C125.992 33.375 125.586 33.7109 125.133 33.9766C124.695 34.2422 124.211 34.375 123.68 34.375C123.117 34.375 122.648 34.2422 122.273 33.9766C121.898 33.6953 121.602 33.3516 121.383 32.9453C121.18 32.5234 121.031 32.0625 120.938 31.5625C120.859 31.0625 120.82 30.5859 120.82 30.1328C120.82 29.0703 120.922 27.9219 121.125 26.6875C121.344 25.4375 121.641 24.1953 122.016 22.9609C122.391 21.7109 122.828 20.5156 123.328 19.375C123.828 18.2188 124.375 17.2109 124.969 16.3516V16.375L125.109 16.1641C125.281 15.9297 125.477 15.6797 125.695 15.4141C125.93 15.1328 126.203 14.9922 126.516 14.9922C126.812 14.9922 127.07 15.125 127.289 15.3906C127.508 15.6406 127.664 15.9062 127.758 16.1875C128.164 16.2656 128.492 16.3672 128.742 16.4922C128.992 16.6016 129.188 16.7422 129.328 16.9141C129.469 17.0859 129.562 17.2891 129.609 17.5234C129.656 17.7422 129.68 17.9844 129.68 18.25C129.68 18.3594 129.68 18.4766 129.68 18.6016C129.68 18.7266 129.672 18.8516 129.656 18.9766C129.641 19.1016 129.633 19.25 129.633 19.4219C129.633 19.5938 129.633 19.75 129.633 19.8906C129.633 20.0469 129.656 20.25 129.703 20.5C129.766 20.75 129.828 21.0078 129.891 21.2734L130.055 22.1406C130.133 22.5938 130.195 23.1094 130.242 23.6875C130.305 24.2656 130.375 24.8438 130.453 25.4219C130.516 26.0156 130.578 26.5938 130.641 27.1562C130.703 27.7031 130.766 28.2109 130.828 28.6797L131.391 32.1484L131.461 32.5469C131.492 32.75 131.523 32.9375 131.555 33.1094C131.602 33.2812 131.625 33.4766 131.625 33.6953ZM126.258 20.2188C126.258 20.1875 126.25 20.1406 126.234 20.0781C126.219 20 126.203 19.9219 126.188 19.8438C125.828 20.6094 125.508 21.4453 125.227 22.3516C124.961 23.2422 124.734 24.1562 124.547 25.0938C124.375 26.0156 124.242 26.9453 124.148 27.8828C124.07 28.8047 124.031 29.6797 124.031 30.5078C124.031 30.5859 124.031 30.6562 124.031 30.7188C124.031 30.7812 124.039 30.8438 124.055 30.9062V30.9297C124.43 30.3516 124.75 29.5938 125.016 28.6562C125.297 27.7031 125.531 26.7109 125.719 25.6797C125.906 24.6328 126.039 23.625 126.117 22.6562C126.211 21.6719 126.258 20.8594 126.258 20.2188ZM135.328 34.375C135.094 34.375 134.836 34.3438 134.555 34.2812C134.289 34.2188 134.031 34.1172 133.781 33.9766C133.547 33.8359 133.344 33.6641 133.172 33.4609C133.016 33.2422 132.938 32.9844 132.938 32.6875C132.938 32.25 132.953 31.8203 132.984 31.3984C133.031 30.9609 133.078 30.5312 133.125 30.1094V30.1328L133.266 28.5625C133.312 28 133.352 27.3828 133.383 26.7109C133.414 26.0391 133.438 25.3594 133.453 24.6719C133.484 23.9688 133.508 23.2812 133.523 22.6094C133.539 21.9375 133.547 21.3203 133.547 20.7578C133.547 20.4297 133.539 20.1016 133.523 19.7734C133.523 19.4297 133.523 19.0859 133.523 18.7422C133.508 18.4453 133.5 18.1172 133.5 17.7578C133.5 17.3828 133.5 17.0391 133.5 16.7266C133.5 16.3984 133.539 16.1328 133.617 15.9297C133.711 15.7109 133.961 15.6016 134.367 15.6016C134.727 15.6016 135.102 15.6953 135.492 15.8828C135.898 16.0703 136.18 16.3359 136.336 16.6797H136.312C136.391 16.8516 136.445 17.1328 136.477 17.5234C136.523 17.8984 136.555 18.2344 136.57 18.5312C136.836 18.125 137.133 17.6953 137.461 17.2422C137.805 16.7891 138.172 16.375 138.562 16C138.953 15.6094 139.367 15.2891 139.805 15.0391C140.242 14.7891 140.711 14.6641 141.211 14.6641C141.867 14.6641 142.367 14.8281 142.711 15.1562C143.055 15.4844 143.305 15.8984 143.461 16.3984C143.617 16.8828 143.703 17.4062 143.719 17.9688C143.734 18.5156 143.742 19.0156 143.742 19.4688V19.6562C143.742 19.8438 143.734 20.0312 143.719 20.2188C143.719 20.3906 143.688 20.5547 143.625 20.7109C143.578 20.8516 143.484 20.9688 143.344 21.0625C143.219 21.1562 143.039 21.2031 142.805 21.2031C142.555 21.2031 142.289 21.1719 142.008 21.1094C141.727 21.0312 141.461 20.9219 141.211 20.7812C140.977 20.6406 140.773 20.4688 140.602 20.2656C140.43 20.0469 140.336 19.7969 140.32 19.5156C140.32 19.3906 140.32 19.2656 140.32 19.1406C140.32 19.0156 140.328 18.8906 140.344 18.7656C140.344 18.6875 140.344 18.5938 140.344 18.4844C140.359 18.3594 140.367 18.2422 140.367 18.1328C139.867 18.6328 139.422 19.25 139.031 19.9844C138.656 20.7188 138.312 21.5 138 22.3281C137.703 23.1562 137.445 23.9922 137.227 24.8359C137.008 25.6641 136.82 26.4141 136.664 27.0859V27.1562C136.617 27.6406 136.586 28.1172 136.57 28.5859C136.555 29.0547 136.539 29.5391 136.523 30.0391C136.508 30.6016 136.484 31.1719 136.453 31.75C136.438 32.3281 136.398 32.8906 136.336 33.4375C136.305 33.7344 136.211 33.9609 136.055 34.1172C135.914 34.2891 135.672 34.375 135.328 34.375ZM153.844 35.5938C153.844 36.2344 153.82 36.9062 153.773 37.6094C153.727 38.3125 153.648 39.0156 153.539 39.7188C153.43 40.4375 153.281 41.1406 153.094 41.8281C152.906 42.5156 152.672 43.1562 152.391 43.75C151.922 44.625 151.328 45.3906 150.609 46.0469C149.906 46.7188 149.133 47.2812 148.289 47.7344C147.445 48.1875 146.547 48.5312 145.594 48.7656C144.641 49 143.68 49.1172 142.711 49.1172C142.57 49.1172 142.406 49.1094 142.219 49.0938C142.016 49.0781 141.82 49.0391 141.633 48.9766C141.445 48.9297 141.289 48.8438 141.164 48.7188C141.039 48.5938 140.977 48.4219 140.977 48.2031C140.977 48.1094 141 48.0156 141.047 47.9219C141.047 47.8906 141.055 47.8594 141.07 47.8281C141.07 47.8125 141.07 47.7969 141.07 47.7812C141.18 47.4688 141.305 47.2188 141.445 47.0312C141.586 46.8438 141.75 46.6953 141.938 46.5859C142.109 46.4922 142.32 46.4219 142.57 46.375C142.805 46.3438 143.078 46.3125 143.391 46.2812C144.391 46.2344 145.336 46 146.227 45.5781V45.6016C147.242 45.1016 148.039 44.4766 148.617 43.7266C149.211 42.9922 149.656 42.1719 149.953 41.2656C150.266 40.375 150.461 39.4297 150.539 38.4297C150.617 37.4297 150.656 36.4219 150.656 35.4062C150.656 35.1719 150.656 35 150.656 34.8906C150.656 34.7812 150.656 34.6797 150.656 34.5859C150.656 34.5078 150.656 34.4141 150.656 34.3047C150.656 34.1953 150.648 34.0234 150.633 33.7891C150.086 34.2109 149.516 34.4219 148.922 34.4219C148.234 34.4219 147.648 34.2344 147.164 33.8594C146.695 33.4688 146.297 32.9688 145.969 32.3594C145.656 31.7344 145.406 31.0312 145.219 30.25C145.047 29.4531 144.914 28.6484 144.82 27.8359C144.742 27.0078 144.688 26.2031 144.656 25.4219C144.641 24.6406 144.633 23.9453 144.633 23.3359V22.3516C144.633 21.5234 144.633 20.7109 144.633 19.9141C144.648 19.1172 144.68 18.3203 144.727 17.5234V17.1719C144.727 16.9844 144.727 16.7969 144.727 16.6094C144.727 16.4219 144.742 16.2422 144.773 16.0703C144.836 15.8203 144.922 15.6406 145.031 15.5312C145.156 15.4219 145.352 15.3672 145.617 15.3672C145.742 15.3672 145.859 15.375 145.969 15.3906C146.094 15.4062 146.219 15.4297 146.344 15.4609C146.641 15.5859 146.875 15.7188 147.047 15.8594C147.219 15.9844 147.344 16.1406 147.422 16.3281C147.516 16.5 147.57 16.7031 147.586 16.9375C147.617 17.1719 147.633 17.4453 147.633 17.7578V20.8984C147.633 21.2734 147.633 21.7422 147.633 22.3047C147.648 22.8516 147.672 23.4531 147.703 24.1094C147.734 24.7656 147.773 25.4453 147.82 26.1484C147.867 26.8516 147.938 27.5312 148.031 28.1875C148.125 28.8438 148.234 29.4453 148.359 29.9922C148.484 30.5391 148.641 30.9922 148.828 31.3516C149.109 30.7422 149.352 30.0312 149.555 29.2188C149.758 28.3906 149.922 27.5078 150.047 26.5703C150.188 25.6172 150.289 24.6406 150.352 23.6406C150.43 22.6406 150.484 21.6641 150.516 20.7109C150.562 19.7578 150.586 18.8594 150.586 18.0156C150.602 17.1562 150.609 16.4062 150.609 15.7656C150.609 15.6094 150.609 15.4453 150.609 15.2734C150.625 15.0859 150.664 14.9219 150.727 14.7812C150.789 14.625 150.875 14.5 150.984 14.4062C151.109 14.3125 151.289 14.2656 151.523 14.2656C151.633 14.2656 151.75 14.2812 151.875 14.3125C152.016 14.3438 152.133 14.375 152.227 14.4062C152.258 14.4062 152.289 14.4141 152.32 14.4297C152.367 14.4297 152.406 14.4297 152.438 14.4297C152.656 14.5078 152.867 14.5859 153.07 14.6641C153.273 14.7422 153.445 14.8438 153.586 14.9688C153.742 15.0781 153.859 15.2266 153.938 15.4141C154.031 15.6016 154.078 15.8438 154.078 16.1406C154.078 16.5 154.07 16.9141 154.055 17.3828C154.055 17.8359 154.039 18.3125 154.008 18.8125C153.992 19.3125 153.969 19.8047 153.938 20.2891C153.906 20.7578 153.875 21.1797 153.844 21.5547L153.75 22.375C153.719 22.5938 153.695 22.8125 153.68 23.0312C153.664 23.25 153.656 23.4531 153.656 23.6406C153.656 24.6406 153.664 25.6406 153.68 26.6406C153.695 27.625 153.719 28.6172 153.75 29.6172C153.781 30.6172 153.805 31.6172 153.82 32.6172C153.836 33.6016 153.844 34.5938 153.844 35.5938Z" fill="#C62DEC"/>
<path d="M50 49C55.5047 58.2892 62.3616 68.3059 72.0891 73.4788C76.7007 75.9312 81.5297 77.5532 86.0401 79.8085" stroke="#C62DEC" stroke-width="3" stroke-linecap="round"/>
<path d="M87.784 71.6704C89.9632 75.3024 91.8992 79.4689 94.7272 82.6504C96.6747 84.8413 93.1606 83.8775 91.4009 83.8775C88.0228 83.8775 84.7659 84.4588 81.3898 84.4588" stroke="#C62DEC" stroke-width="3" stroke-linecap="round"/>
</svg>
