<svg width="155" height="68" viewBox="0 0 155 68" fill="none" xmlns="http://www.w3.org/2000/svg">
<path d="M1.90723 2.40063C3.80619 8.09753 5.10207 14.2411 5.5304 20.2378" stroke="#42D3CB" stroke-width="3" stroke-linecap="round"/>
<path d="M2.74341 1.84314C8.07236 1.84314 13.4119 1.91509 18.7225 2.40055C20.504 2.5634 22.0333 2.82406 23.6464 3.51538" stroke="#42D3CB" stroke-width="3" stroke-linecap="round"/>
<path d="M3.85828 4.35156C7.79886 6.6755 12.0612 8.39859 15.982 10.7773C22.5627 14.7697 28.7516 19.8671 33.8037 25.688C36.6729 28.9939 40.0831 33.3162 41.4836 37.5176" stroke="#42D3CB" stroke-width="3" stroke-linecap="round"/>
<path d="M68.4453 50.5781C68.4453 50.9375 68.25 51.2812 67.8594 51.6094C67.4844 51.9375 66.9922 52.2422 66.3828 52.5234C65.7891 52.7891 65.125 53.0391 64.3906 53.2734C63.6719 53.4922 62.9609 53.6797 62.2578 53.8359C61.5703 53.9922 60.9375 54.1094 60.3594 54.1875C59.7812 54.2812 59.3516 54.3281 59.0703 54.3281C58.5391 54.3281 58.0469 54.2656 57.5938 54.1406C57.1562 54.0156 56.7734 53.8281 56.4453 53.5781C56.1172 53.3125 55.8594 52.9766 55.6719 52.5703C55.5 52.1641 55.4141 51.6719 55.4141 51.0938C55.4141 46.9219 55.4297 42.7656 55.4609 38.625C55.4922 34.4844 55.5078 30.3125 55.5078 26.1094C55.5078 25.4531 55.4922 24.8047 55.4609 24.1641C55.4297 23.5234 55.4141 22.875 55.4141 22.2188C55.4141 22.0625 55.4219 21.8828 55.4375 21.6797C55.4531 21.4609 55.4922 21.2656 55.5547 21.0938C55.6172 20.9062 55.7109 20.75 55.8359 20.625C55.9609 20.5 56.1328 20.4375 56.3516 20.4375C56.5703 20.4375 56.7969 20.4688 57.0312 20.5312C57.2812 20.5938 57.5078 20.6875 57.7109 20.8125C57.9297 20.9375 58.1172 21.0938 58.2734 21.2812C58.4453 21.4531 58.5703 21.6562 58.6484 21.8906C58.7266 22.1719 58.7578 22.4766 58.7422 22.8047C58.7422 23.1172 58.7422 23.4375 58.7422 23.7656C58.8203 27.9219 58.875 32.0469 58.9062 36.1406C58.9531 40.2344 58.9766 44.3594 58.9766 48.5156C58.9766 48.9844 58.9766 49.4531 58.9766 49.9219C58.9922 50.3906 59.0234 50.8594 59.0703 51.3281C59.4922 51.3125 60.0078 51.2422 60.6172 51.1172C61.2266 50.9922 61.8359 50.8359 62.4453 50.6484C63.0703 50.4453 63.6562 50.2188 64.2031 49.9688C64.75 49.7188 65.1797 49.4531 65.4922 49.1719C65.6328 49.0312 65.7812 48.8906 65.9375 48.75C66.0938 48.5938 66.2891 48.5156 66.5234 48.5156C66.7266 48.5156 66.9375 48.5859 67.1562 48.7266C67.3906 48.8672 67.6016 49.0469 67.7891 49.2656C67.9766 49.4688 68.1328 49.6875 68.2578 49.9219C68.3828 50.1562 68.4453 50.375 68.4453 50.5781ZM71.75 34.2891C71.75 34.5547 71.6875 34.75 71.5625 34.875C71.4531 34.9844 71.2422 35.0391 70.9297 35.0391C70.7891 35.0391 70.5703 35.0234 70.2734 34.9922C69.9766 34.9453 69.6719 34.8828 69.3594 34.8047C69.0625 34.7266 68.7969 34.6172 68.5625 34.4766C68.3438 34.3359 68.2344 34.1641 68.2344 33.9609C68.2344 33.8984 68.2578 33.7266 68.3047 33.4453C68.3516 33.1484 68.4062 32.8359 68.4688 32.5078C68.5469 32.1797 68.6094 31.8828 68.6562 31.6172C68.7188 31.3516 68.7656 31.2031 68.7969 31.1719V31.1953C68.875 31.0703 68.9688 30.9922 69.0781 30.9609C69.1875 30.9297 69.2969 30.9141 69.4062 30.9141C69.5469 30.9141 69.7266 30.9375 69.9453 30.9844C70.1797 31.0156 70.4062 31.0703 70.625 31.1484C70.8594 31.2109 71.0703 31.2969 71.2578 31.4062C71.4453 31.5156 71.5625 31.6328 71.6094 31.7578C71.6562 31.8828 71.6797 32.0547 71.6797 32.2734C71.6953 32.4766 71.6953 32.6641 71.6797 32.8359C71.6797 32.8984 71.6719 32.9766 71.6562 33.0703C71.6562 33.1484 71.6562 33.2109 71.6562 33.2578C71.6562 33.3359 71.6562 33.4141 71.6562 33.4922C71.6719 33.5703 71.6875 33.6484 71.7031 33.7266C71.7188 33.8047 71.7266 33.8906 71.7266 33.9844C71.7422 34.0781 71.75 34.1797 71.75 34.2891ZM72.6172 52.9688C72.6172 53.3281 72.5312 53.5859 72.3594 53.7422C72.2031 53.8828 71.9453 53.9531 71.5859 53.9531C71.3984 53.9531 71.1875 53.9297 70.9531 53.8828C70.7344 53.8359 70.5156 53.7734 70.2969 53.6953C70.0781 53.6016 69.875 53.4922 69.6875 53.3672C69.5 53.2422 69.3594 53.1016 69.2656 52.9453C69.2031 52.8516 69.1484 52.5625 69.1016 52.0781C69.0547 51.5938 69.0156 50.9922 68.9844 50.2734C68.9688 49.5547 68.9453 48.75 68.9141 47.8594C68.8984 46.9688 68.8828 46.0703 68.8672 45.1641C68.8672 44.2578 68.8672 43.375 68.8672 42.5156C68.8672 41.6562 68.8672 40.9062 68.8672 40.2656V38.4609C68.8672 38.3047 68.8672 38.1484 68.8672 37.9922C68.8828 37.8359 68.9141 37.7031 68.9609 37.5938C69.0234 37.4688 69.1094 37.3672 69.2188 37.2891C69.3438 37.2109 69.5156 37.1719 69.7344 37.1719C70.4219 37.1719 70.9219 37.3672 71.2344 37.7578C71.5625 38.1328 71.7656 38.6406 71.8438 39.2812C71.9219 40.2344 71.9766 41.1875 72.0078 42.1406C72.0547 43.0781 72.0938 44.0312 72.125 45C72.1562 45.875 72.1797 46.7422 72.1953 47.6016C72.2266 48.4453 72.2812 49.2891 72.3594 50.1328C72.375 50.3047 72.3906 50.4688 72.4062 50.625C72.4219 50.7812 72.4453 50.9375 72.4766 51.0938C72.5078 51.4062 72.5391 51.7188 72.5703 52.0312C72.6016 52.3281 72.6172 52.6406 72.6172 52.9688ZM86.2344 54.3516C86.2344 54.5234 86.1406 54.6797 85.9531 54.8203C85.7656 54.9609 85.5469 55.0781 85.2969 55.1719C85.0625 55.2656 84.8203 55.3359 84.5703 55.3828C84.3203 55.4453 84.125 55.4766 83.9844 55.4766C83.7188 55.4766 83.4766 55.4219 83.2578 55.3125C83.0391 55.2188 82.8359 55.0938 82.6484 54.9375C82.4609 54.7812 82.2812 54.6094 82.1094 54.4219C81.9531 54.2344 81.8047 54.0469 81.6641 53.8594C81.1172 53.1875 80.5547 52.4375 79.9766 51.6094C79.3984 50.7812 78.8828 49.9922 78.4297 49.2422C78.4297 49.3047 78.4375 49.3828 78.4531 49.4766C78.4688 49.5703 78.4766 49.6484 78.4766 49.7109C78.5078 50.0391 78.5312 50.3672 78.5469 50.6953C78.5781 51.0078 78.6172 51.3281 78.6641 51.6562C78.6797 51.8438 78.6953 52.0312 78.7109 52.2188C78.7422 52.3906 78.7734 52.5781 78.8047 52.7812C78.8359 53.0312 78.8672 53.2812 78.8984 53.5312C78.9297 53.7812 78.9453 54.0391 78.9453 54.3047C78.9453 54.6328 78.8516 54.8516 78.6641 54.9609C78.4766 55.0859 78.2266 55.1484 77.9141 55.1484C77.6953 55.1484 77.4609 55.1328 77.2109 55.1016C76.9609 55.0703 76.7188 55.0078 76.4844 54.9141C76.25 54.8203 76.0391 54.6953 75.8516 54.5391C75.6641 54.3828 75.5234 54.1797 75.4297 53.9297C75.3828 53.7422 75.3359 53.3906 75.2891 52.875C75.2422 52.3594 75.2031 51.7891 75.1719 51.1641C75.1406 50.5234 75.1094 49.8828 75.0781 49.2422C75.0625 48.6016 75.0469 48.0703 75.0312 47.6484C75.0312 47.5547 75.0234 47.4766 75.0078 47.4141C75.0078 47.3516 75.0078 47.2891 75.0078 47.2266C74.8828 47.1172 74.7734 46.9844 74.6797 46.8281C74.5859 46.6719 74.5391 46.5234 74.5391 46.3828C74.5391 46.1797 74.5781 46 74.6562 45.8438C74.7344 45.6875 74.8203 45.5391 74.9141 45.3984C74.8203 43.4766 74.7734 41.5625 74.7734 39.6562C74.7734 38.0781 74.7891 36.5156 74.8203 34.9688C74.8672 33.4062 74.9062 31.8438 74.9375 30.2812L75.0078 27.1406C75.0234 26.9844 75.0312 26.7812 75.0312 26.5312C75.0312 26.2812 75.0312 26.0156 75.0312 25.7344C75.0312 25.3906 75.0312 25.0312 75.0312 24.6562C75.0312 24.2812 75.0391 23.9297 75.0547 23.6016C75.0703 23.2734 75.0859 22.9766 75.1016 22.7109C75.1172 22.4453 75.1484 22.25 75.1953 22.125V22.1484C75.2578 21.9141 75.3438 21.7422 75.4531 21.6328C75.5625 21.5234 75.75 21.4688 76.0156 21.4688C76.6719 21.4688 77.1797 21.6641 77.5391 22.0547C77.8984 22.4453 78.0781 22.9688 78.0781 23.625C78.0781 24.6719 78.0703 25.7188 78.0547 26.7656C78.0547 27.7969 78.0469 28.8359 78.0312 29.8828C78.0156 30.9297 78 31.9766 77.9844 33.0234C77.9844 34.0547 77.9844 35.0938 77.9844 36.1406C77.9844 36.5156 77.9844 36.8984 77.9844 37.2891C78 37.6641 78.0078 38.0469 78.0078 38.4375C78.0234 38.75 78.0312 39.0703 78.0312 39.3984C78.0312 39.7266 78.0312 40.0703 78.0312 40.4297L80.5625 36.3984V36.4219L80.7734 36C80.8203 35.9219 80.8438 35.8672 80.8438 35.8359C80.8594 35.8047 80.875 35.7656 80.8906 35.7188C80.9219 35.6562 80.9766 35.5625 81.0547 35.4375C81.1484 35.3125 81.3047 35.125 81.5234 34.875C81.6016 34.7969 81.6953 34.7266 81.8047 34.6641C81.9141 34.6016 82.0547 34.5703 82.2266 34.5703C82.3984 34.5703 82.5703 34.625 82.7422 34.7344C82.9297 34.8281 83.0938 34.9531 83.2344 35.1094C83.375 35.2656 83.4922 35.4375 83.5859 35.625C83.6797 35.8125 83.7266 35.9844 83.7266 36.1406C83.7266 36.2656 83.6562 36.4844 83.5156 36.7969C83.375 37.0938 83.1875 37.4609 82.9531 37.8984C82.7344 38.3359 82.4844 38.8125 82.2031 39.3281C81.9219 39.8281 81.625 40.3359 81.3125 40.8516C81.0156 41.3672 80.7266 41.8672 80.4453 42.3516C80.1641 42.8359 79.9141 43.2656 79.6953 43.6406L79.0859 44.625C79.4453 45.25 79.8594 45.9453 80.3281 46.7109C80.8125 47.4609 81.3203 48.2188 81.8516 48.9844C82.3828 49.75 82.9219 50.4844 83.4688 51.1875C84.0312 51.8906 84.5781 52.5078 85.1094 53.0391L85.3438 53.2266C85.5312 53.3672 85.7266 53.5391 85.9297 53.7422C86.1328 53.9297 86.2344 54.1328 86.2344 54.3516ZM94.5781 49.7109C94.5781 50.1797 94.4453 50.6641 94.1797 51.1641C93.9297 51.6641 93.6016 52.125 93.1953 52.5469C92.7891 52.9531 92.3203 53.2891 91.7891 53.5547C91.2734 53.8203 90.7578 53.9531 90.2422 53.9531C89.5078 53.9531 88.875 53.8125 88.3438 53.5312C87.8125 53.2344 87.3516 52.8438 86.9609 52.3594C86.5703 51.8594 86.25 51.2969 86 50.6719C85.7656 50.0469 85.5781 49.4062 85.4375 48.75C85.2969 48.0781 85.1953 47.4141 85.1328 46.7578C85.0859 46.0859 85.0625 45.4766 85.0625 44.9297C85.0625 44.4609 85.0859 43.9062 85.1328 43.2656C85.1953 42.625 85.2891 41.9609 85.4141 41.2734C85.5547 40.5859 85.7422 39.9062 85.9766 39.2344C86.2109 38.5625 86.5 37.9609 86.8438 37.4297C87.2031 36.8984 87.625 36.4688 88.1094 36.1406C88.6094 35.8125 89.1797 35.6484 89.8203 35.6484C90.3203 35.6484 90.7656 35.75 91.1562 35.9531C91.5625 36.1562 91.8984 36.4297 92.1641 36.7734C92.4453 37.1016 92.6562 37.4844 92.7969 37.9219C92.9531 38.3594 93.0312 38.8125 93.0312 39.2812C93.0312 39.8906 92.8906 40.5547 92.6094 41.2734C92.3281 41.9922 91.9609 42.6875 91.5078 43.3594C91.0703 44.0312 90.5703 44.6406 90.0078 45.1875C89.4609 45.7188 88.9141 46.125 88.3672 46.4062C88.3984 46.6875 88.4609 47.1016 88.5547 47.6484C88.6484 48.1797 88.7734 48.7109 88.9297 49.2422C89.1016 49.7734 89.2969 50.2344 89.5156 50.625C89.75 51.0156 90.0234 51.2109 90.3359 51.2109C90.4922 51.2109 90.625 51.1641 90.7344 51.0703C90.8594 50.9766 90.9688 50.8516 91.0625 50.6953C91.1562 50.5391 91.2344 50.3672 91.2969 50.1797C91.375 49.9922 91.4453 49.8125 91.5078 49.6406L91.6484 49.3125C91.6797 49.2656 91.6953 49.2344 91.6953 49.2188C91.7109 49.2031 91.7266 49.1797 91.7422 49.1484C91.8516 48.9453 91.9531 48.7578 92.0469 48.5859C92.1562 48.4141 92.3047 48.2656 92.4922 48.1406H92.4688C92.5312 48.0781 92.5938 48.0469 92.6562 48.0469C92.7344 48.0312 92.8047 48.0234 92.8672 48.0234C93.0391 48.0234 93.2266 48.0781 93.4297 48.1875C93.6328 48.2969 93.8203 48.4375 93.9922 48.6094C94.1641 48.7656 94.3047 48.9453 94.4141 49.1484C94.5234 49.3359 94.5781 49.5234 94.5781 49.7109ZM89.9375 39.375C89.9375 39.2188 89.9297 39.0547 89.9141 38.8828C89.8984 38.7109 89.8594 38.5625 89.7969 38.4375C89.5781 38.7031 89.3828 39.0234 89.2109 39.3984C89.0547 39.7578 88.9219 40.1406 88.8125 40.5469C88.7031 40.9375 88.6094 41.3359 88.5312 41.7422C88.4688 42.1484 88.4219 42.5234 88.3906 42.8672C88.7969 42.3828 89.1562 41.8359 89.4688 41.2266C89.7812 40.6016 89.9375 39.9844 89.9375 39.375ZM106.578 53.8828C106.578 54.2422 106.469 54.4766 106.25 54.5859C106.047 54.6953 105.797 54.75 105.5 54.75C105.234 54.75 104.969 54.7266 104.703 54.6797C104.453 54.6484 104.211 54.5781 103.977 54.4688C103.758 54.3594 103.562 54.2109 103.391 54.0234C103.234 53.8359 103.125 53.5938 103.062 53.2969C102.844 52.3594 102.719 51.4453 102.688 50.5547C102.656 49.6484 102.641 48.7188 102.641 47.7656V44.8828C102.641 43.5703 102.695 42.2109 102.805 40.8047C102.914 39.3828 103.031 38.0156 103.156 36.7031C103.156 36.6562 103.164 36.6016 103.18 36.5391C103.195 36.4766 103.203 36.4297 103.203 36.3984C103.219 36.2266 103.242 36.0391 103.273 35.8359C103.305 35.6328 103.352 35.4531 103.414 35.2969C103.492 35.125 103.594 34.9844 103.719 34.875C103.859 34.7656 104.039 34.7109 104.258 34.7109C104.508 34.7109 104.742 34.7656 104.961 34.875C105.195 34.9688 105.398 35.1016 105.57 35.2734C105.742 35.4297 105.875 35.625 105.969 35.8594C106.078 36.0938 106.133 36.3359 106.133 36.5859C106.133 36.8984 106.117 37.2266 106.086 37.5703C106.07 37.8984 106.047 38.2188 106.016 38.5312C105.984 38.75 105.961 38.9141 105.945 39.0234C105.945 39.1328 105.938 39.3125 105.922 39.5625C106.109 39.2344 106.32 38.9062 106.555 38.5781C106.805 38.2344 107.078 37.9375 107.375 37.6875C107.672 37.4219 107.992 37.2109 108.336 37.0547C108.695 36.8828 109.078 36.7969 109.484 36.7969C109.891 36.7969 110.227 36.8672 110.492 37.0078C110.758 37.1328 110.969 37.3125 111.125 37.5469C111.281 37.7656 111.391 38.0312 111.453 38.3438C111.516 38.6562 111.547 38.9844 111.547 39.3281C111.547 39.5469 111.539 39.7578 111.523 39.9609C111.523 40.1641 111.516 40.3672 111.5 40.5703C111.484 40.7734 111.469 40.9766 111.453 41.1797C111.453 41.3672 111.453 41.5703 111.453 41.7891C111.453 42.1953 111.461 42.5859 111.477 42.9609C111.508 43.3203 111.539 43.7031 111.57 44.1094C111.727 43.5938 111.914 43.0078 112.133 42.3516C112.367 41.6953 112.633 41.0234 112.93 40.3359C113.242 39.6484 113.578 38.9766 113.938 38.3203C114.312 37.6484 114.711 37.0547 115.133 36.5391C115.57 36.0234 116.039 35.6094 116.539 35.2969C117.039 34.9688 117.562 34.8047 118.109 34.8047C118.969 34.8047 119.57 35.0547 119.914 35.5547C120.273 36.0547 120.453 36.6953 120.453 37.4766C120.453 37.6953 120.445 37.9297 120.43 38.1797C120.414 38.4141 120.391 38.6406 120.359 38.8594C120.281 39.7031 120.219 40.5703 120.172 41.4609C120.141 42.3516 120.125 43.2188 120.125 44.0625V44.5078C120.125 45.6016 120.172 46.6328 120.266 47.6016C120.359 48.5703 120.547 49.5938 120.828 50.6719L121.016 51.3047C121.078 51.5234 121.148 51.7656 121.227 52.0312C121.32 52.2969 121.398 52.5547 121.461 52.8047C121.523 53.0547 121.578 53.2891 121.625 53.5078C121.672 53.7266 121.695 53.8984 121.695 54.0234C121.695 54.3516 121.578 54.5703 121.344 54.6797C121.109 54.7891 120.867 54.8438 120.617 54.8438C120.461 54.8438 120.281 54.8359 120.078 54.8203C119.875 54.8203 119.672 54.7969 119.469 54.75C119.281 54.7188 119.094 54.6641 118.906 54.5859C118.734 54.5078 118.594 54.4062 118.484 54.2812V54.3047C118.344 54.1641 118.242 53.9922 118.18 53.7891C118.117 53.5859 118.07 53.3828 118.039 53.1797L117.992 52.9688C117.773 52.125 117.586 51.3672 117.43 50.6953C117.289 50.0234 117.172 49.3516 117.078 48.6797C116.984 48.0078 116.914 47.3125 116.867 46.5938C116.836 45.875 116.82 45.0469 116.82 44.1094C116.82 43.3125 116.852 42.5 116.914 41.6719C116.992 40.8438 117.07 40.0312 117.148 39.2344C117.148 39.1562 117.148 39.0703 117.148 38.9766C117.164 38.8672 117.18 38.7734 117.195 38.6953C116.602 39.6172 116.078 40.6328 115.625 41.7422C115.188 42.8359 114.789 43.9609 114.43 45.1172C114.086 46.2734 113.781 47.4375 113.516 48.6094C113.266 49.7656 113.039 50.8672 112.836 51.9141C112.836 51.9297 112.867 52.0234 112.93 52.1953C113.008 52.3516 113.078 52.5391 113.141 52.7578C113.219 52.9609 113.289 53.1641 113.352 53.3672C113.414 53.5547 113.445 53.6797 113.445 53.7422C113.445 54.1016 113.328 54.3203 113.094 54.3984C112.859 54.4766 112.617 54.5156 112.367 54.5156C112.18 54.5156 111.977 54.5078 111.758 54.4922C111.539 54.4766 111.32 54.4375 111.102 54.375C110.898 54.3125 110.703 54.2266 110.516 54.1172C110.344 54.0234 110.203 53.8828 110.094 53.6953C110 53.5391 109.891 53.1719 109.766 52.5938C109.641 52 109.508 51.3125 109.367 50.5312C109.227 49.7344 109.094 48.8828 108.969 47.9766C108.844 47.0703 108.727 46.2109 108.617 45.3984C108.508 44.5859 108.422 43.875 108.359 43.2656C108.297 42.6562 108.266 42.2422 108.266 42.0234V41.6719C107.766 42.75 107.352 43.9062 107.023 45.1406C106.695 46.375 106.445 47.5859 106.273 48.7734L106.18 49.1953C106.148 49.3203 106.125 49.4453 106.109 49.5703C106.094 49.6797 106.086 49.7891 106.086 49.8984C106.086 50.0703 106.102 50.2812 106.133 50.5312C106.18 50.7812 106.234 51.0547 106.297 51.3516C106.375 51.7578 106.438 52.1797 106.484 52.6172C106.547 53.0391 106.578 53.4609 106.578 53.8828ZM132.266 49.7109C132.266 50.1797 132.133 50.6641 131.867 51.1641C131.617 51.6641 131.289 52.125 130.883 52.5469C130.477 52.9531 130.008 53.2891 129.477 53.5547C128.961 53.8203 128.445 53.9531 127.93 53.9531C127.195 53.9531 126.562 53.8125 126.031 53.5312C125.5 53.2344 125.039 52.8438 124.648 52.3594C124.258 51.8594 123.938 51.2969 123.688 50.6719C123.453 50.0469 123.266 49.4062 123.125 48.75C122.984 48.0781 122.883 47.4141 122.82 46.7578C122.773 46.0859 122.75 45.4766 122.75 44.9297C122.75 44.4609 122.773 43.9062 122.82 43.2656C122.883 42.625 122.977 41.9609 123.102 41.2734C123.242 40.5859 123.43 39.9062 123.664 39.2344C123.898 38.5625 124.188 37.9609 124.531 37.4297C124.891 36.8984 125.312 36.4688 125.797 36.1406C126.297 35.8125 126.867 35.6484 127.508 35.6484C128.008 35.6484 128.453 35.75 128.844 35.9531C129.25 36.1562 129.586 36.4297 129.852 36.7734C130.133 37.1016 130.344 37.4844 130.484 37.9219C130.641 38.3594 130.719 38.8125 130.719 39.2812C130.719 39.8906 130.578 40.5547 130.297 41.2734C130.016 41.9922 129.648 42.6875 129.195 43.3594C128.758 44.0312 128.258 44.6406 127.695 45.1875C127.148 45.7188 126.602 46.125 126.055 46.4062C126.086 46.6875 126.148 47.1016 126.242 47.6484C126.336 48.1797 126.461 48.7109 126.617 49.2422C126.789 49.7734 126.984 50.2344 127.203 50.625C127.438 51.0156 127.711 51.2109 128.023 51.2109C128.18 51.2109 128.312 51.1641 128.422 51.0703C128.547 50.9766 128.656 50.8516 128.75 50.6953C128.844 50.5391 128.922 50.3672 128.984 50.1797C129.062 49.9922 129.133 49.8125 129.195 49.6406L129.336 49.3125C129.367 49.2656 129.383 49.2344 129.383 49.2188C129.398 49.2031 129.414 49.1797 129.43 49.1484C129.539 48.9453 129.641 48.7578 129.734 48.5859C129.844 48.4141 129.992 48.2656 130.18 48.1406H130.156C130.219 48.0781 130.281 48.0469 130.344 48.0469C130.422 48.0312 130.492 48.0234 130.555 48.0234C130.727 48.0234 130.914 48.0781 131.117 48.1875C131.32 48.2969 131.508 48.4375 131.68 48.6094C131.852 48.7656 131.992 48.9453 132.102 49.1484C132.211 49.3359 132.266 49.5234 132.266 49.7109ZM127.625 39.375C127.625 39.2188 127.617 39.0547 127.602 38.8828C127.586 38.7109 127.547 38.5625 127.484 38.4375C127.266 38.7031 127.07 39.0234 126.898 39.3984C126.742 39.7578 126.609 40.1406 126.5 40.5469C126.391 40.9375 126.297 41.3359 126.219 41.7422C126.156 42.1484 126.109 42.5234 126.078 42.8672C126.484 42.3828 126.844 41.8359 127.156 41.2266C127.469 40.6016 127.625 39.9844 127.625 39.375ZM152.633 28.7812C152.633 30.0312 152.562 31.2969 152.422 32.5781C152.297 33.8438 152.008 35.0625 151.555 36.2344C151.273 36.9688 150.898 37.7344 150.43 38.5312C149.977 39.3125 149.531 40.1094 149.094 40.9219C148.656 41.7344 148.273 42.5469 147.945 43.3594C147.633 44.1562 147.477 44.9375 147.477 45.7031C147.477 45.8906 147.484 46.0703 147.5 46.2422C147.516 46.4141 147.523 46.5938 147.523 46.7812C147.523 47.1875 147.445 47.5234 147.289 47.7891C147.133 48.0547 146.82 48.1875 146.352 48.1875C146.086 48.1875 145.766 48.1406 145.391 48.0469C145.016 47.9531 144.711 47.8438 144.477 47.7188C144.102 47.5312 143.859 47.3125 143.75 47.0625C143.641 46.7969 143.586 46.4531 143.586 46.0312C143.586 45.2188 143.703 44.4375 143.938 43.6875C144.172 42.9219 144.469 42.1875 144.828 41.4844C145.188 40.7656 145.578 40.0625 146 39.375C146.422 38.6875 146.82 38 147.195 37.3125C147.93 35.9375 148.43 34.4922 148.695 32.9766C148.977 31.4609 149.117 29.9219 149.117 28.3594C149.117 28.0469 149.094 27.6719 149.047 27.2344C149.016 26.7969 148.953 26.3438 148.859 25.875C148.766 25.4062 148.641 24.9375 148.484 24.4688C148.344 24 148.156 23.5859 147.922 23.2266C147.688 22.8516 147.406 22.5547 147.078 22.3359C146.766 22.1016 146.398 21.9844 145.977 21.9844C145.461 21.9844 145.039 22.1484 144.711 22.4766C144.383 22.8047 144.125 23.2031 143.938 23.6719C143.75 24.1406 143.617 24.6406 143.539 25.1719C143.477 25.6875 143.445 26.1406 143.445 26.5312C143.445 26.9688 143.516 27.4219 143.656 27.8906C143.797 28.3438 143.953 28.7656 144.125 29.1562C144.297 29.5469 144.453 29.8828 144.594 30.1641C144.734 30.4297 144.805 30.5938 144.805 30.6562C144.805 30.8125 144.734 30.9375 144.594 31.0312C144.469 31.125 144.312 31.2031 144.125 31.2656C143.938 31.3125 143.75 31.3516 143.562 31.3828C143.375 31.3984 143.227 31.4062 143.117 31.4062C142.523 31.4062 142.031 31.2266 141.641 30.8672C141.266 30.5078 140.969 30.0703 140.75 29.5547C140.531 29.0234 140.375 28.4609 140.281 27.8672C140.203 27.2734 140.164 26.75 140.164 26.2969C140.164 25.4219 140.273 24.5625 140.492 23.7188C140.711 22.875 141.055 22.125 141.523 21.4688C141.992 20.8125 142.578 20.2812 143.281 19.875C144 19.4688 144.852 19.2656 145.836 19.2656C147.195 19.2656 148.312 19.5547 149.188 20.1328C150.062 20.6953 150.758 21.4297 151.273 22.3359C151.789 23.2422 152.141 24.2656 152.328 25.4062C152.531 26.5312 152.633 27.6562 152.633 28.7812ZM144.148 51.4688C144.148 51.3125 144.203 51.1953 144.312 51.1172C144.422 51.0234 144.555 50.9609 144.711 50.9297C144.883 50.8828 145.047 50.8594 145.203 50.8594C145.375 50.8594 145.523 50.8594 145.648 50.8594C145.805 50.8594 145.984 50.8672 146.188 50.8828C146.406 50.8828 146.609 50.9141 146.797 50.9766C146.984 51.0234 147.141 51.1094 147.266 51.2344C147.406 51.3438 147.477 51.5 147.477 51.7031C147.477 51.7812 147.469 51.9531 147.453 52.2188C147.453 52.4688 147.445 52.7422 147.43 53.0391C147.43 53.3359 147.414 53.6094 147.383 53.8594C147.367 54.0938 147.352 54.2188 147.336 54.2344C147.242 54.4062 147.094 54.5 146.891 54.5156C146.688 54.5469 146.492 54.5625 146.305 54.5625C145.836 54.5625 145.484 54.5391 145.25 54.4922C145.016 54.4453 144.844 54.3516 144.734 54.2109C144.641 54.0703 144.57 53.875 144.523 53.625C144.492 53.375 144.445 53.0469 144.383 52.6406C144.352 52.4531 144.305 52.2656 144.242 52.0781C144.18 51.8906 144.148 51.6875 144.148 51.4688Z" fill="#42D3CB"/>
</svg>
